<mxfile host="app.diagrams.net" agent="Mozilla/5.0 (Macintosh; Intel Mac OS X 10_15_7) AppleWebKit/537.36 (KHTML, like Gecko) Chrome/138.0.0.0 Safari/537.36" version="28.0.7">
  <diagram name="Page-1" id="NSKCN1yDX3Lk4BcxiZCk">
    <mxGraphModel dx="1183" dy="763" grid="1" gridSize="10" guides="1" tooltips="1" connect="1" arrows="1" fold="1" page="1" pageScale="1" pageWidth="827" pageHeight="1169" math="0" shadow="0">
      <root>
        <mxCell id="0" />
        <mxCell id="1" parent="0" />
        <mxCell id="nY15QL7Lt_zJvUoqdlJS-3" style="edgeStyle=orthogonalEdgeStyle;rounded=0;orthogonalLoop=1;jettySize=auto;html=1;exitX=0.5;exitY=1;exitDx=0;exitDy=0;" edge="1" parent="1">
          <mxGeometry relative="1" as="geometry">
            <mxPoint x="370" y="140.0000000000001" as="sourcePoint" />
            <mxPoint x="370" y="190.0000000000001" as="targetPoint" />
          </mxGeometry>
        </mxCell>
        <mxCell id="nY15QL7Lt_zJvUoqdlJS-6" value="System On" style="strokeWidth=2;html=1;shape=mxgraph.flowchart.start_1;whiteSpace=wrap;" vertex="1" parent="1">
          <mxGeometry x="320" y="80" width="100" height="60" as="geometry" />
        </mxCell>
        <mxCell id="nY15QL7Lt_zJvUoqdlJS-10" style="edgeStyle=orthogonalEdgeStyle;rounded=0;orthogonalLoop=1;jettySize=auto;html=1;exitX=1;exitY=0.5;exitDx=0;exitDy=0;exitPerimeter=0;entryX=0;entryY=0.5;entryDx=0;entryDy=0;" edge="1" parent="1" source="nY15QL7Lt_zJvUoqdlJS-7" target="nY15QL7Lt_zJvUoqdlJS-8">
          <mxGeometry relative="1" as="geometry" />
        </mxCell>
        <mxCell id="nY15QL7Lt_zJvUoqdlJS-19" style="edgeStyle=orthogonalEdgeStyle;rounded=0;orthogonalLoop=1;jettySize=auto;html=1;exitX=0;exitY=0.5;exitDx=0;exitDy=0;exitPerimeter=0;entryX=0;entryY=0.5;entryDx=0;entryDy=0;entryPerimeter=0;" edge="1" parent="1" source="nY15QL7Lt_zJvUoqdlJS-7" target="nY15QL7Lt_zJvUoqdlJS-17">
          <mxGeometry relative="1" as="geometry">
            <mxPoint x="160" y="840" as="targetPoint" />
          </mxGeometry>
        </mxCell>
        <mxCell id="nY15QL7Lt_zJvUoqdlJS-7" value="Is it feeding time?" style="strokeWidth=2;html=1;shape=mxgraph.flowchart.decision;whiteSpace=wrap;" vertex="1" parent="1">
          <mxGeometry x="300" y="190" width="140" height="130" as="geometry" />
        </mxCell>
        <mxCell id="nY15QL7Lt_zJvUoqdlJS-8" value="Dispense Food" style="rounded=1;whiteSpace=wrap;html=1;absoluteArcSize=1;arcSize=14;strokeWidth=2;" vertex="1" parent="1">
          <mxGeometry x="500" y="205" width="100" height="100" as="geometry" />
        </mxCell>
        <mxCell id="nY15QL7Lt_zJvUoqdlJS-16" style="edgeStyle=orthogonalEdgeStyle;rounded=0;orthogonalLoop=1;jettySize=auto;html=1;exitX=1;exitY=0.5;exitDx=0;exitDy=0;exitPerimeter=0;entryX=0;entryY=0.5;entryDx=0;entryDy=0;" edge="1" parent="1" source="nY15QL7Lt_zJvUoqdlJS-11" target="nY15QL7Lt_zJvUoqdlJS-13">
          <mxGeometry relative="1" as="geometry" />
        </mxCell>
        <mxCell id="nY15QL7Lt_zJvUoqdlJS-11" value="Is there food in the&lt;div&gt;container?&lt;/div&gt;" style="strokeWidth=2;html=1;shape=mxgraph.flowchart.decision;whiteSpace=wrap;" vertex="1" parent="1">
          <mxGeometry x="305" y="375" width="130" height="130" as="geometry" />
        </mxCell>
        <mxCell id="nY15QL7Lt_zJvUoqdlJS-12" value="" style="strokeWidth=2;html=1;shape=mxgraph.flowchart.decision;whiteSpace=wrap;" vertex="1" parent="1">
          <mxGeometry x="314" y="570" width="100" height="100" as="geometry" />
        </mxCell>
        <mxCell id="nY15QL7Lt_zJvUoqdlJS-13" value="" style="rounded=1;whiteSpace=wrap;html=1;absoluteArcSize=1;arcSize=14;strokeWidth=2;" vertex="1" parent="1">
          <mxGeometry x="500" y="390" width="100" height="100" as="geometry" />
        </mxCell>
        <mxCell id="nY15QL7Lt_zJvUoqdlJS-14" value="" style="rounded=1;whiteSpace=wrap;html=1;absoluteArcSize=1;arcSize=14;strokeWidth=2;" vertex="1" parent="1">
          <mxGeometry x="500" y="580" width="100" height="100" as="geometry" />
        </mxCell>
        <mxCell id="nY15QL7Lt_zJvUoqdlJS-15" style="edgeStyle=orthogonalEdgeStyle;rounded=0;orthogonalLoop=1;jettySize=auto;html=1;entryX=0.5;entryY=1;entryDx=0;entryDy=0;entryPerimeter=0;" edge="1" parent="1" source="nY15QL7Lt_zJvUoqdlJS-11" target="nY15QL7Lt_zJvUoqdlJS-7">
          <mxGeometry relative="1" as="geometry" />
        </mxCell>
        <mxCell id="nY15QL7Lt_zJvUoqdlJS-17" value="System Off" style="strokeWidth=2;html=1;shape=mxgraph.flowchart.start_1;whiteSpace=wrap;" vertex="1" parent="1">
          <mxGeometry x="314" y="810" width="100" height="60" as="geometry" />
        </mxCell>
        <mxCell id="nY15QL7Lt_zJvUoqdlJS-18" style="edgeStyle=orthogonalEdgeStyle;rounded=0;orthogonalLoop=1;jettySize=auto;html=1;exitX=0.5;exitY=1;exitDx=0;exitDy=0;exitPerimeter=0;entryX=0.5;entryY=0;entryDx=0;entryDy=0;entryPerimeter=0;" edge="1" parent="1" source="nY15QL7Lt_zJvUoqdlJS-12" target="nY15QL7Lt_zJvUoqdlJS-17">
          <mxGeometry relative="1" as="geometry" />
        </mxCell>
      </root>
    </mxGraphModel>
  </diagram>
</mxfile>
